<svg xmlns="http://www.w3.org/2000/svg" data-name="Layer 1" fill="#8551a9" viewBox="0 0 32 32"><path d="M28.19,31.28l-.87-1.8-.63-1.27c-.23-.59-.54-1.37-.89-2.22l-.59-1.49a8.655,8.655,0,0,1,.58-7.35A10.955,10.955,0,0,0,26.91,9.7a.511.511,0,0,0-.49-.4H24.57L22.86,2.53a.526.526,0,0,0-.15-.25L20.9.64a.5.5,0,0,0-.46-.11.51.51,0,0,0-.35.32l-.81,2.29a.481.481,0,0,0-.01.29L20.75,9.3H18.58a13.513,13.513,0,0,0-.81-2.01,6.371,6.371,0,0,0-.37-.66V6.62a1.718,1.718,0,0,0,.13-.23,2.59,2.59,0,0,0-.63-3.44,4.045,4.045,0,0,0-.43-.29,3.654,3.654,0,0,1-.46-.32c-.27-.27-.43-.8-.22-1.03a.492.492,0,0,0-.03-.7.484.484,0,0,0-.7.03h-.01a5.958,5.958,0,0,0-1.35,2.6,3.863,3.863,0,0,0,1.53,4.01c-.02.23-.02.45-.02.66.01.42.04.89.1,1.39H13.5L12.37,2.5A2.5,2.5,0,0,0,9.49.45L8.5.61A2.495,2.495,0,0,0,6.45,3.49l.15.9c0,.03.01.05.01.08,0,.01.01.03.01.04L7.1,7.34a.374.374,0,0,0,.007.067c0,.01,0,.018,0,.028s.006.014.008.022L7.42,9.3H5.83a.511.511,0,0,0-.49.4,11.4,11.4,0,0,0-.22,2.2,5.436,5.436,0,0,0,.03.57,6.984,6.984,0,0,1-.37,2.55l-.95,2.91A1.5,1.5,0,0,0,5.25,19.9H6.88v2.25a4.5,4.5,0,0,0,4.5,4.5h2.57a1.5,1.5,0,0,1,1.48,1.27l.53,3.39a1.032,1.032,0,0,0,.14.44.521.521,0,0,0,.44.25H27.75a.491.491,0,0,0,.42-.24A.484.484,0,0,0,28.19,31.28ZM20.27,3.33l.52-1.44,1.13,1.03.11.42-1.65.42Zm.36,1.4,1.64-.41L23.54,9.3H21.78ZM17.52,9.3h-1.2a10.191,10.191,0,0,1-.09-2.09c.12-.03.23-.05.31-.07h.01A10.778,10.778,0,0,1,17.52,9.3ZM14.67,3.46a5.807,5.807,0,0,1,.29-.86,1.979,1.979,0,0,0,.36.45,3.145,3.145,0,0,0,.63.46c.11.07.23.15.34.23a1.621,1.621,0,0,1,.38,2.12.535.535,0,0,1-.05.11c-.02.03-.05.09-.08.14l-.86.21a1.291,1.291,0,0,1-.17-.16A2.821,2.821,0,0,1,14.67,3.46ZM7.69,2.21a1.475,1.475,0,0,1,.98-.61l.99-.17a1.941,1.941,0,0,1,.24-.02,1.5,1.5,0,0,1,1.48,1.26l1.1,6.63H8.43L8.18,7.762l.488-.081A.5.5,0,1,0,8.5,6.694l-.493.082V6.77L7.69,4.81V4.8l1.472-.245A.5.5,0,0,0,9,3.571L7.52,3.817l-.08-.5A1.459,1.459,0,0,1,7.69,2.21ZM16.92,31l-.5-3.23A2.472,2.472,0,0,0,14.8,25.8a2.375,2.375,0,0,0-.85-.15H11.38a3.5,3.5,0,0,1-3.5-3.5V19.4a.5.5,0,0,0-.5-.5H5.25a.5.5,0,0,1-.4-.21.494.494,0,0,1-.07-.44l.95-2.91a7.731,7.731,0,0,0,.41-2.93c-.01-.17-.02-.34-.02-.51a10.571,10.571,0,0,1,.13-1.6H7.58l.02.09a.279.279,0,0,1-.01-.09H26a9.942,9.942,0,0,1-1.08,6.37,9.653,9.653,0,0,0-.64,8.21l.6,1.48c.34.85.65,1.63.9,2.25l.64,1.31c.17.36.35.72.52,1.08Z"/></svg>